<mxfile host="65bd71144e">
    <diagram id="T9YhzOFRz3ybyIc2CFFb" name="Page-1">
        <mxGraphModel dx="3110" dy="1686" grid="1" gridSize="10" guides="1" tooltips="1" connect="1" arrows="1" fold="1" page="1" pageScale="1" pageWidth="4000" pageHeight="3000" math="0" shadow="0">
            <root>
                <mxCell id="0"/>
                <mxCell id="1" parent="0"/>
                <mxCell id="2" value="" style="rounded=1;whiteSpace=wrap;html=1;" parent="1" vertex="1">
                    <mxGeometry x="1770" y="1350" width="1470" height="1220" as="geometry"/>
                </mxCell>
                <mxCell id="yq6vvfXI3uli9TNve_ER-16" value="Fahrzeugbestand überwachen" style="shape=umlFrame;whiteSpace=wrap;html=1;width=240;height=30;boundedLbl=1;verticalAlign=middle;align=left;spacingLeft=5;fontSize=14;" parent="1" vertex="1">
                    <mxGeometry x="1630" y="40" width="1850" height="1160" as="geometry"/>
                </mxCell>
                <mxCell id="yq6vvfXI3uli9TNve_ER-29" value="&lt;b&gt;loop&lt;/b&gt; Mietstation" style="shape=umlFrame;whiteSpace=wrap;html=1;fontSize=14;width=140;height=30;" parent="1" vertex="1">
                    <mxGeometry x="1670" y="217" width="1690" height="943" as="geometry"/>
                </mxCell>
                <mxCell id="vpkyE2I-De3JcrigjXew-1" value="Unternehmenszentrale" style="shape=umlActor;verticalLabelPosition=bottom;verticalAlign=top;html=1;" parent="1" vertex="1">
                    <mxGeometry x="80" y="340" width="30" height="60" as="geometry"/>
                </mxCell>
                <mxCell id="vpkyE2I-De3JcrigjXew-2" value="Allgemeine Verwaltung" style="rounded=0;whiteSpace=wrap;html=1;verticalAlign=top;fontSize=14;" parent="1" vertex="1">
                    <mxGeometry x="240" y="90" width="1040" height="670" as="geometry"/>
                </mxCell>
                <mxCell id="vpkyE2I-De3JcrigjXew-8" value="Stammdaten pflegen" style="ellipse;whiteSpace=wrap;html=1;fontSize=14;" parent="1" vertex="1">
                    <mxGeometry x="530" y="140" width="140" height="70" as="geometry"/>
                </mxCell>
                <mxCell id="vpkyE2I-De3JcrigjXew-9" value="" style="endArrow=none;html=1;rounded=0;fontSize=14;endFill=0;" parent="1" source="vpkyE2I-De3JcrigjXew-1" target="vpkyE2I-De3JcrigjXew-19" edge="1">
                    <mxGeometry width="50" height="50" relative="1" as="geometry">
                        <mxPoint x="680" y="440" as="sourcePoint"/>
                        <mxPoint x="300" y="269.8611111111111" as="targetPoint"/>
                    </mxGeometry>
                </mxCell>
                <mxCell id="vpkyE2I-De3JcrigjXew-10" value="Fahrzeugbestand überwachen" style="ellipse;whiteSpace=wrap;html=1;fontSize=14;" parent="1" vertex="1">
                    <mxGeometry x="950" y="160" width="140" height="70" as="geometry"/>
                </mxCell>
                <mxCell id="vpkyE2I-De3JcrigjXew-11" value="Fahrzeugbestand optimieren" style="ellipse;whiteSpace=wrap;html=1;fontSize=14;" parent="1" vertex="1">
                    <mxGeometry x="710" y="410" width="140" height="70" as="geometry"/>
                </mxCell>
                <mxCell id="vpkyE2I-De3JcrigjXew-12" value="Fahrzeuge überführen" style="ellipse;whiteSpace=wrap;html=1;fontSize=14;" parent="1" vertex="1">
                    <mxGeometry x="410" y="590" width="140" height="70" as="geometry"/>
                </mxCell>
                <mxCell id="vpkyE2I-De3JcrigjXew-13" value="&amp;lt;&amp;lt;include&amp;gt;&amp;gt;" style="endArrow=classic;dashed=1;html=1;dashPattern=1 3;strokeWidth=2;rounded=0;fontSize=14;endFill=1;" parent="1" source="vpkyE2I-De3JcrigjXew-19" target="vpkyE2I-De3JcrigjXew-8" edge="1">
                    <mxGeometry x="-0.706" y="48" width="50" height="50" relative="1" as="geometry">
                        <mxPoint x="537.7272727272727" y="280" as="sourcePoint"/>
                        <mxPoint x="730" y="440" as="targetPoint"/>
                        <mxPoint x="1" as="offset"/>
                    </mxGeometry>
                </mxCell>
                <mxCell id="vpkyE2I-De3JcrigjXew-14" value="&amp;lt;&amp;lt;include&amp;gt;&amp;gt;" style="endArrow=classic;dashed=1;html=1;dashPattern=1 3;strokeWidth=2;rounded=0;fontSize=14;endFill=1;" parent="1" source="vpkyE2I-De3JcrigjXew-19" target="vpkyE2I-De3JcrigjXew-10" edge="1">
                    <mxGeometry x="-0.1831" y="21" width="50" height="50" relative="1" as="geometry">
                        <mxPoint x="610" y="348.132530120482" as="sourcePoint"/>
                        <mxPoint x="730" y="440" as="targetPoint"/>
                        <mxPoint as="offset"/>
                    </mxGeometry>
                </mxCell>
                <mxCell id="vpkyE2I-De3JcrigjXew-16" value="&amp;lt;&amp;lt;extends&amp;gt;&amp;gt;" style="endArrow=classic;dashed=1;html=1;dashPattern=1 3;strokeWidth=2;rounded=0;fontSize=14;endFill=1;" parent="1" source="vpkyE2I-De3JcrigjXew-12" target="vpkyE2I-De3JcrigjXew-11" edge="1">
                    <mxGeometry x="0.6502" y="-42" width="50" height="50" relative="1" as="geometry">
                        <mxPoint x="680" y="490" as="sourcePoint"/>
                        <mxPoint x="730" y="440" as="targetPoint"/>
                        <mxPoint as="offset"/>
                    </mxGeometry>
                </mxCell>
                <mxCell id="vpkyE2I-De3JcrigjXew-17" value="&amp;lt;&amp;lt;include&amp;gt;&amp;gt;" style="endArrow=none;dashed=1;html=1;dashPattern=1 3;strokeWidth=2;rounded=0;fontSize=14;startArrow=classic;endFill=0;startFill=1;" parent="1" source="yq6vvfXI3uli9TNve_ER-58" target="vpkyE2I-De3JcrigjXew-10" edge="1">
                    <mxGeometry x="-0.4736" y="-54" width="50" height="50" relative="1" as="geometry">
                        <mxPoint x="680" y="490" as="sourcePoint"/>
                        <mxPoint x="596.7073170731708" y="420" as="targetPoint"/>
                        <mxPoint as="offset"/>
                    </mxGeometry>
                </mxCell>
                <mxCell id="vpkyE2I-De3JcrigjXew-19" value="Mietstation verwalten" style="ellipse;whiteSpace=wrap;html=1;fontSize=14;" parent="1" vertex="1">
                    <mxGeometry x="340" y="310" width="230" height="120" as="geometry"/>
                </mxCell>
                <mxCell id="vpkyE2I-De3JcrigjXew-20" value="{ungleichmäßige Verteilung}" style="shape=note2;boundedLbl=1;whiteSpace=wrap;html=1;size=25;verticalAlign=top;align=left;spacingLeft=5;fontSize=14;" parent="1" vertex="1">
                    <mxGeometry x="720" y="650" width="220" height="60" as="geometry"/>
                </mxCell>
                <mxCell id="vpkyE2I-De3JcrigjXew-21" value="condition:" style="resizeWidth=1;part=1;strokeColor=none;fillColor=none;align=left;spacingLeft=5;fontSize=14;" parent="vpkyE2I-De3JcrigjXew-20" vertex="1">
                    <mxGeometry width="220" height="25" relative="1" as="geometry"/>
                </mxCell>
                <mxCell id="vpkyE2I-De3JcrigjXew-22" value="" style="endArrow=none;dashed=1;html=1;dashPattern=1 3;strokeWidth=2;rounded=0;fontSize=14;startArrow=none;startFill=0;" parent="1" target="vpkyE2I-De3JcrigjXew-20" edge="1">
                    <mxGeometry width="50" height="50" relative="1" as="geometry">
                        <mxPoint x="620" y="540" as="sourcePoint"/>
                        <mxPoint x="730" y="440" as="targetPoint"/>
                    </mxGeometry>
                </mxCell>
                <mxCell id="vpkyE2I-De3JcrigjXew-23" value="{prognostizierte Nachfrage ist ungleich dem Bestand}" style="shape=note2;boundedLbl=1;whiteSpace=wrap;html=1;size=25;verticalAlign=top;align=left;spacingLeft=5;fontSize=14;" parent="1" vertex="1">
                    <mxGeometry x="960" y="510" width="220" height="80" as="geometry"/>
                </mxCell>
                <mxCell id="vpkyE2I-De3JcrigjXew-24" value="condition:" style="resizeWidth=1;part=1;strokeColor=none;fillColor=none;align=left;spacingLeft=5;fontSize=14;" parent="vpkyE2I-De3JcrigjXew-23" vertex="1">
                    <mxGeometry width="220" height="25" relative="1" as="geometry"/>
                </mxCell>
                <mxCell id="vpkyE2I-De3JcrigjXew-25" value="" style="endArrow=none;dashed=1;html=1;dashPattern=1 3;strokeWidth=2;rounded=0;fontSize=14;" parent="1" target="vpkyE2I-De3JcrigjXew-23" edge="1">
                    <mxGeometry width="50" height="50" relative="1" as="geometry">
                        <mxPoint x="870" y="360" as="sourcePoint"/>
                        <mxPoint x="790" y="480" as="targetPoint"/>
                    </mxGeometry>
                </mxCell>
                <mxCell id="yq6vvfXI3uli9TNve_ER-6" value="&amp;lt;&amp;lt;actor&amp;gt;&amp;gt;&lt;br&gt;&lt;b&gt;Mietstation&lt;/b&gt;" style="text;html=1;align=center;verticalAlign=middle;dashed=0;fillColor=#ffffff;strokeColor=#000000;" parent="1" vertex="1">
                    <mxGeometry x="400" y="810" width="160" height="70" as="geometry"/>
                </mxCell>
                <mxCell id="yq6vvfXI3uli9TNve_ER-11" value="&lt;div&gt;&lt;span&gt;Datenbank&lt;/span&gt;&lt;br&gt;&lt;/div&gt;" style="shape=cylinder3;whiteSpace=wrap;html=1;boundedLbl=1;backgroundOutline=1;size=15;fontSize=14;" parent="1" vertex="1">
                    <mxGeometry x="50" y="100" width="110" height="130" as="geometry"/>
                </mxCell>
                <mxCell id="yq6vvfXI3uli9TNve_ER-12" value="" style="endArrow=none;html=1;strokeWidth=2;rounded=0;fontSize=14;" parent="1" source="yq6vvfXI3uli9TNve_ER-11" target="vpkyE2I-De3JcrigjXew-8" edge="1">
                    <mxGeometry width="50" height="50" relative="1" as="geometry">
                        <mxPoint x="520" y="260" as="sourcePoint"/>
                        <mxPoint x="570" y="210" as="targetPoint"/>
                    </mxGeometry>
                </mxCell>
                <mxCell id="yq6vvfXI3uli9TNve_ER-14" value="" style="endArrow=none;html=1;rounded=0;fontSize=14;" parent="1" source="yq6vvfXI3uli9TNve_ER-16" target="vpkyE2I-De3JcrigjXew-10" edge="1">
                    <mxGeometry width="50" height="50" relative="1" as="geometry">
                        <mxPoint x="1420" y="500" as="sourcePoint"/>
                        <mxPoint x="1470" y="450" as="targetPoint"/>
                    </mxGeometry>
                </mxCell>
                <mxCell id="yq6vvfXI3uli9TNve_ER-18" value=":Unternehmenszentrale" style="shape=umlLifeline;perimeter=lifelinePerimeter;whiteSpace=wrap;html=1;container=1;collapsible=0;recursiveResize=0;outlineConnect=0;lifelineDashed=1;fontSize=14;" parent="1" vertex="1">
                    <mxGeometry x="1790" y="90" width="180" height="1030" as="geometry"/>
                </mxCell>
                <mxCell id="yq6vvfXI3uli9TNve_ER-26" value="" style="html=1;points=[];perimeter=orthogonalPerimeter;fontSize=14;" parent="yq6vvfXI3uli9TNve_ER-18" vertex="1">
                    <mxGeometry x="85" y="70" width="10" height="920" as="geometry"/>
                </mxCell>
                <mxCell id="yq6vvfXI3uli9TNve_ER-19" value=":Mietstation" style="shape=umlLifeline;perimeter=lifelinePerimeter;whiteSpace=wrap;html=1;container=1;collapsible=0;recursiveResize=0;outlineConnect=0;lifelineDashed=1;fontSize=14;" parent="1" vertex="1">
                    <mxGeometry x="2160" y="90" width="180" height="1030" as="geometry"/>
                </mxCell>
                <mxCell id="yq6vvfXI3uli9TNve_ER-27" value="" style="html=1;points=[];perimeter=orthogonalPerimeter;fontSize=14;" parent="yq6vvfXI3uli9TNve_ER-19" vertex="1">
                    <mxGeometry x="85" y="145" width="10" height="445" as="geometry"/>
                </mxCell>
                <mxCell id="yq6vvfXI3uli9TNve_ER-37" value="bestandslisteErstellen()" style="html=1;verticalAlign=bottom;labelBackgroundColor=none;endArrow=block;endFill=1;rounded=0;fontSize=14;" parent="yq6vvfXI3uli9TNve_ER-19" source="yq6vvfXI3uli9TNve_ER-27" target="yq6vvfXI3uli9TNve_ER-40" edge="1">
                    <mxGeometry x="0.0586" y="90" width="160" relative="1" as="geometry">
                        <mxPoint x="113" y="434" as="sourcePoint"/>
                        <mxPoint x="113" y="465" as="targetPoint"/>
                        <Array as="points">
                            <mxPoint x="178" y="434"/>
                            <mxPoint x="178" y="465"/>
                        </Array>
                        <mxPoint as="offset"/>
                    </mxGeometry>
                </mxCell>
                <mxCell id="yq6vvfXI3uli9TNve_ER-40" value="" style="html=1;points=[];perimeter=orthogonalPerimeter;fontSize=14;" parent="yq6vvfXI3uli9TNve_ER-19" vertex="1">
                    <mxGeometry x="90" y="460" width="10" height="50" as="geometry"/>
                </mxCell>
                <mxCell id="yq6vvfXI3uli9TNve_ER-41" value="bestandslisteErstellen: Mietwagen[]" style="html=1;verticalAlign=bottom;labelBackgroundColor=none;endArrow=block;endFill=1;dashed=1;rounded=0;fontSize=14;entryX=0.96;entryY=0.899;entryDx=0;entryDy=0;entryPerimeter=0;" parent="yq6vvfXI3uli9TNve_ER-19" source="yq6vvfXI3uli9TNve_ER-40" target="yq6vvfXI3uli9TNve_ER-27" edge="1">
                    <mxGeometry x="0.0526" y="140" width="160" relative="1" as="geometry">
                        <mxPoint x="70" y="465" as="sourcePoint"/>
                        <mxPoint x="230" y="465" as="targetPoint"/>
                        <Array as="points">
                            <mxPoint x="180" y="504"/>
                            <mxPoint x="180" y="545"/>
                        </Array>
                        <mxPoint as="offset"/>
                    </mxGeometry>
                </mxCell>
                <mxCell id="yq6vvfXI3uli9TNve_ER-20" value=":Datenbank" style="shape=umlLifeline;perimeter=lifelinePerimeter;whiteSpace=wrap;html=1;container=1;collapsible=0;recursiveResize=0;outlineConnect=0;lifelineDashed=1;fontSize=14;" parent="1" vertex="1">
                    <mxGeometry x="2560" y="90" width="180" height="1030" as="geometry"/>
                </mxCell>
                <mxCell id="yq6vvfXI3uli9TNve_ER-33" value="" style="html=1;points=[];perimeter=orthogonalPerimeter;fontSize=14;" parent="yq6vvfXI3uli9TNve_ER-20" vertex="1">
                    <mxGeometry x="85" y="324" width="10" height="76" as="geometry"/>
                </mxCell>
                <mxCell id="yq6vvfXI3uli9TNve_ER-36" value="fahrtenAbfragen()" style="html=1;verticalAlign=bottom;labelBackgroundColor=none;endArrow=block;endFill=1;rounded=0;fontSize=14;exitX=1.167;exitY=0.43;exitDx=0;exitDy=0;exitPerimeter=0;" parent="yq6vvfXI3uli9TNve_ER-20" edge="1">
                    <mxGeometry width="160" relative="1" as="geometry">
                        <mxPoint x="-303.3299999999999" y="336.35" as="sourcePoint"/>
                        <mxPoint x="85" y="335.0000000000001" as="targetPoint"/>
                    </mxGeometry>
                </mxCell>
                <mxCell id="yq6vvfXI3uli9TNve_ER-70" value="" style="html=1;points=[];perimeter=orthogonalPerimeter;fontSize=14;" parent="yq6vvfXI3uli9TNve_ER-20" vertex="1">
                    <mxGeometry x="85" y="210" width="10" height="80" as="geometry"/>
                </mxCell>
                <mxCell id="yq6vvfXI3uli9TNve_ER-28" value="fahrzeugbestandAnfragen()" style="html=1;verticalAlign=bottom;labelBackgroundColor=none;endArrow=block;endFill=1;rounded=0;fontSize=14;" parent="1" edge="1">
                    <mxGeometry width="160" relative="1" as="geometry">
                        <mxPoint x="1885" y="279.9999999999999" as="sourcePoint"/>
                        <mxPoint x="2245" y="279.9999999999999" as="targetPoint"/>
                    </mxGeometry>
                </mxCell>
                <mxCell id="yq6vvfXI3uli9TNve_ER-32" value="fahrzeugeAbfragen()" style="html=1;verticalAlign=bottom;labelBackgroundColor=none;endArrow=block;endFill=1;rounded=0;fontSize=14;entryX=-0.133;entryY=0.02;entryDx=0;entryDy=0;entryPerimeter=0;exitX=1;exitY=0.153;exitDx=0;exitDy=0;exitPerimeter=0;" parent="1" edge="1">
                    <mxGeometry width="160" relative="1" as="geometry">
                        <mxPoint x="2255" y="308.0849999999999" as="sourcePoint"/>
                        <mxPoint x="2643.6699999999996" y="306.6" as="targetPoint"/>
                    </mxGeometry>
                </mxCell>
                <mxCell id="yq6vvfXI3uli9TNve_ER-34" value="fahrzeugeAbfragen: Mietwagen[]" style="html=1;verticalAlign=bottom;labelBackgroundColor=none;endArrow=block;endFill=1;dashed=1;rounded=0;fontSize=14;" parent="1" edge="1">
                    <mxGeometry width="160" relative="1" as="geometry">
                        <mxPoint x="2645" y="371" as="sourcePoint"/>
                        <mxPoint x="2255" y="371" as="targetPoint"/>
                        <Array as="points">
                            <mxPoint x="2370" y="371"/>
                        </Array>
                    </mxGeometry>
                </mxCell>
                <mxCell id="yq6vvfXI3uli9TNve_ER-35" value="fahrtenAbfragen: Fahrt[]" style="html=1;verticalAlign=bottom;labelBackgroundColor=none;endArrow=block;endFill=1;dashed=1;rounded=0;fontSize=14;" parent="1" edge="1">
                    <mxGeometry width="160" relative="1" as="geometry">
                        <mxPoint x="2645" y="481" as="sourcePoint"/>
                        <mxPoint x="2255" y="481" as="targetPoint"/>
                        <Array as="points">
                            <mxPoint x="2330" y="481"/>
                        </Array>
                    </mxGeometry>
                </mxCell>
                <mxCell id="yq6vvfXI3uli9TNve_ER-38" value="" style="html=1;verticalAlign=bottom;labelBackgroundColor=none;endArrow=block;endFill=1;dashed=1;rounded=0;fontSize=14;exitX=-0.25;exitY=0.951;exitDx=0;exitDy=0;exitPerimeter=0;" parent="1" source="yq6vvfXI3uli9TNve_ER-27" target="yq6vvfXI3uli9TNve_ER-26" edge="1">
                    <mxGeometry width="160" relative="1" as="geometry">
                        <mxPoint x="2150" y="420" as="sourcePoint"/>
                        <mxPoint x="2310" y="420" as="targetPoint"/>
                    </mxGeometry>
                </mxCell>
                <mxCell id="yq6vvfXI3uli9TNve_ER-39" value="fahrzeugbestandAnfragen: Mietwagen[]" style="edgeLabel;html=1;align=center;verticalAlign=middle;resizable=0;points=[];fontSize=14;" parent="yq6vvfXI3uli9TNve_ER-38" vertex="1" connectable="0">
                    <mxGeometry x="0.1562" y="-1" relative="1" as="geometry">
                        <mxPoint x="24" y="-15" as="offset"/>
                    </mxGeometry>
                </mxCell>
                <mxCell id="yq6vvfXI3uli9TNve_ER-42" value="nachfragePrognostizieren()" style="html=1;verticalAlign=bottom;labelBackgroundColor=none;endArrow=block;endFill=1;rounded=0;fontSize=14;entryX=0.009;entryY=-0.002;entryDx=0;entryDy=0;entryPerimeter=0;" parent="1" target="yq6vvfXI3uli9TNve_ER-44" edge="1">
                    <mxGeometry width="160" relative="1" as="geometry">
                        <mxPoint x="1885" y="722" as="sourcePoint"/>
                        <mxPoint x="2935" y="722" as="targetPoint"/>
                    </mxGeometry>
                </mxCell>
                <mxCell id="yq6vvfXI3uli9TNve_ER-43" value=":Marketing" style="shape=umlLifeline;perimeter=lifelinePerimeter;whiteSpace=wrap;html=1;container=1;collapsible=0;recursiveResize=0;outlineConnect=0;lifelineDashed=1;fontSize=14;" parent="1" vertex="1">
                    <mxGeometry x="2820" y="90" width="180" height="1030" as="geometry"/>
                </mxCell>
                <mxCell id="yq6vvfXI3uli9TNve_ER-44" value="" style="html=1;points=[];perimeter=orthogonalPerimeter;fontSize=14;" parent="yq6vvfXI3uli9TNve_ER-43" vertex="1">
                    <mxGeometry x="85" y="635" width="10" height="315" as="geometry"/>
                </mxCell>
                <mxCell id="yq6vvfXI3uli9TNve_ER-53" value="" style="html=1;points=[];perimeter=orthogonalPerimeter;fontSize=14;" parent="yq6vvfXI3uli9TNve_ER-43" vertex="1">
                    <mxGeometry x="90" y="850" width="10" height="50" as="geometry"/>
                </mxCell>
                <mxCell id="yq6vvfXI3uli9TNve_ER-54" value="vergangeneNachfrageAbrufen()" style="html=1;verticalAlign=bottom;labelBackgroundColor=none;endArrow=block;endFill=1;rounded=0;fontSize=14;exitX=1.039;exitY=0.593;exitDx=0;exitDy=0;exitPerimeter=0;" parent="yq6vvfXI3uli9TNve_ER-43" source="yq6vvfXI3uli9TNve_ER-44" target="yq6vvfXI3uli9TNve_ER-53" edge="1">
                    <mxGeometry x="0.1503" y="120" width="160" relative="1" as="geometry">
                        <mxPoint x="100" y="820" as="sourcePoint"/>
                        <mxPoint x="250" y="820" as="targetPoint"/>
                        <Array as="points">
                            <mxPoint x="140" y="822"/>
                            <mxPoint x="140" y="850"/>
                        </Array>
                        <mxPoint as="offset"/>
                    </mxGeometry>
                </mxCell>
                <mxCell id="yq6vvfXI3uli9TNve_ER-55" value="&lt;div&gt;vergangeneNachfrageAbrufen:&lt;/div&gt;&lt;div&gt;int&lt;br&gt;&lt;/div&gt;" style="html=1;verticalAlign=bottom;labelBackgroundColor=none;endArrow=block;endFill=1;dashed=1;rounded=0;fontSize=14;entryX=0.917;entryY=0.921;entryDx=0;entryDy=0;entryPerimeter=0;" parent="yq6vvfXI3uli9TNve_ER-43" target="yq6vvfXI3uli9TNve_ER-44" edge="1" source="yq6vvfXI3uli9TNve_ER-53">
                    <mxGeometry x="0.173" y="101" width="160" relative="1" as="geometry">
                        <mxPoint x="105" y="900" as="sourcePoint"/>
                        <mxPoint x="265" y="900" as="targetPoint"/>
                        <Array as="points">
                            <mxPoint x="140" y="900"/>
                            <mxPoint x="140" y="925"/>
                        </Array>
                        <mxPoint x="100" y="-86" as="offset"/>
                    </mxGeometry>
                </mxCell>
                <mxCell id="yq6vvfXI3uli9TNve_ER-46" value=":Nachrichtenplattform" style="shape=umlLifeline;perimeter=lifelinePerimeter;whiteSpace=wrap;html=1;container=1;collapsible=0;recursiveResize=0;outlineConnect=0;lifelineDashed=1;fontSize=14;" parent="1" vertex="1">
                    <mxGeometry x="3120" y="90" width="180" height="1030" as="geometry"/>
                </mxCell>
                <mxCell id="yq6vvfXI3uli9TNve_ER-47" value="" style="html=1;points=[];perimeter=orthogonalPerimeter;fontSize=14;" parent="yq6vvfXI3uli9TNve_ER-46" vertex="1">
                    <mxGeometry x="85" y="650" width="10" height="50" as="geometry"/>
                </mxCell>
                <mxCell id="yq6vvfXI3uli9TNve_ER-52" value="" style="html=1;points=[];perimeter=orthogonalPerimeter;fontSize=14;" parent="yq6vvfXI3uli9TNve_ER-46" vertex="1">
                    <mxGeometry x="85" y="740" width="10" height="50" as="geometry"/>
                </mxCell>
                <mxCell id="yq6vvfXI3uli9TNve_ER-48" value="besondereEreignisseAbfragen()" style="html=1;verticalAlign=bottom;labelBackgroundColor=none;endArrow=block;endFill=1;rounded=0;fontSize=14;entryX=0.178;entryY=0.004;entryDx=0;entryDy=0;entryPerimeter=0;" parent="1" source="yq6vvfXI3uli9TNve_ER-44" target="yq6vvfXI3uli9TNve_ER-47" edge="1">
                    <mxGeometry width="160" relative="1" as="geometry">
                        <mxPoint x="2950" y="770" as="sourcePoint"/>
                        <mxPoint x="3110" y="770" as="targetPoint"/>
                    </mxGeometry>
                </mxCell>
                <mxCell id="yq6vvfXI3uli9TNve_ER-49" value="" style="html=1;verticalAlign=bottom;labelBackgroundColor=none;endArrow=block;endFill=1;dashed=1;rounded=0;fontSize=14;entryX=1.1;entryY=0.198;entryDx=0;entryDy=0;entryPerimeter=0;" parent="1" source="yq6vvfXI3uli9TNve_ER-47" target="yq6vvfXI3uli9TNve_ER-44" edge="1">
                    <mxGeometry width="160" relative="1" as="geometry">
                        <mxPoint x="3210" y="787.3399999999999" as="sourcePoint"/>
                        <mxPoint x="2945" y="787.3399999999999" as="targetPoint"/>
                    </mxGeometry>
                </mxCell>
                <mxCell id="yq6vvfXI3uli9TNve_ER-50" value="wetterAbfragen()" style="html=1;verticalAlign=bottom;labelBackgroundColor=none;endArrow=block;endFill=1;rounded=0;fontSize=14;exitX=0.946;exitY=0.33;exitDx=0;exitDy=0;exitPerimeter=0;" parent="1" source="yq6vvfXI3uli9TNve_ER-44" edge="1">
                    <mxGeometry width="160" relative="1" as="geometry">
                        <mxPoint x="2946.0400000000004" y="829.9599999999998" as="sourcePoint"/>
                        <mxPoint x="3205" y="829.9599999999998" as="targetPoint"/>
                    </mxGeometry>
                </mxCell>
                <mxCell id="yq6vvfXI3uli9TNve_ER-51" value="" style="html=1;verticalAlign=bottom;labelBackgroundColor=none;endArrow=block;endFill=1;dashed=1;rounded=0;fontSize=14;exitX=-0.193;exitY=0.886;exitDx=0;exitDy=0;exitPerimeter=0;entryX=0.918;entryY=0.493;entryDx=0;entryDy=0;entryPerimeter=0;" parent="1" target="yq6vvfXI3uli9TNve_ER-44" edge="1">
                    <mxGeometry width="160" relative="1" as="geometry">
                        <mxPoint x="3203.0700000000006" y="879.3399999999999" as="sourcePoint"/>
                        <mxPoint x="2945" y="879.3399999999999" as="targetPoint"/>
                    </mxGeometry>
                </mxCell>
                <mxCell id="yq6vvfXI3uli9TNve_ER-56" value="nachfragePrognostizieren: int" style="html=1;verticalAlign=bottom;labelBackgroundColor=none;endArrow=block;endFill=1;dashed=1;rounded=0;fontSize=14;exitX=-0.1;exitY=0.997;exitDx=0;exitDy=0;exitPerimeter=0;" parent="1" source="yq6vvfXI3uli9TNve_ER-44" target="yq6vvfXI3uli9TNve_ER-26" edge="1">
                    <mxGeometry width="160" relative="1" as="geometry">
                        <mxPoint x="2590" y="850" as="sourcePoint"/>
                        <mxPoint x="2750" y="850" as="targetPoint"/>
                    </mxGeometry>
                </mxCell>
                <mxCell id="yq6vvfXI3uli9TNve_ER-58" value="Nachfrage progrnostizieren" style="ellipse;whiteSpace=wrap;html=1;fontSize=14;" parent="1" vertex="1">
                    <mxGeometry x="1010" y="335" width="140" height="70" as="geometry"/>
                </mxCell>
                <mxCell id="yq6vvfXI3uli9TNve_ER-61" value="" style="endArrow=classic;dashed=1;html=1;dashPattern=1 3;strokeWidth=2;rounded=0;fontSize=14;endFill=1;" parent="1" source="vpkyE2I-De3JcrigjXew-11" target="vpkyE2I-De3JcrigjXew-10" edge="1">
                    <mxGeometry width="50" height="50" relative="1" as="geometry">
                        <mxPoint x="846.5307800375049" y="520.9899525457902" as="sourcePoint"/>
                        <mxPoint x="973.5949613854477" y="259.02526527462624" as="targetPoint"/>
                    </mxGeometry>
                </mxCell>
                <mxCell id="yq6vvfXI3uli9TNve_ER-62" value="&amp;lt;&amp;lt;extends&amp;gt;&amp;gt;" style="edgeLabel;html=1;align=center;verticalAlign=middle;resizable=0;points=[];fontSize=14;" parent="yq6vvfXI3uli9TNve_ER-61" vertex="1" connectable="0">
                    <mxGeometry x="-0.1037" y="-2" relative="1" as="geometry">
                        <mxPoint x="-76" as="offset"/>
                    </mxGeometry>
                </mxCell>
                <mxCell id="yq6vvfXI3uli9TNve_ER-63" value="&lt;div&gt;&amp;lt;&amp;lt;actor&amp;gt;&lt;b&gt;&amp;gt;&lt;/b&gt;&lt;/div&gt;&lt;div&gt;&lt;b&gt;Marketing&lt;br&gt;&lt;/b&gt;&lt;/div&gt;" style="text;html=1;align=center;verticalAlign=middle;dashed=0;fillColor=#ffffff;strokeColor=#000000;" parent="1" vertex="1">
                    <mxGeometry x="1340" y="415" width="160" height="70" as="geometry"/>
                </mxCell>
                <mxCell id="yq6vvfXI3uli9TNve_ER-65" value="" style="endArrow=none;html=1;rounded=0;fontSize=14;endFill=0;" parent="1" source="yq6vvfXI3uli9TNve_ER-58" target="yq6vvfXI3uli9TNve_ER-63" edge="1">
                    <mxGeometry width="50" height="50" relative="1" as="geometry">
                        <mxPoint x="1140" y="398.7499999999998" as="sourcePoint"/>
                        <mxPoint x="1370" y="398.7499999999998" as="targetPoint"/>
                    </mxGeometry>
                </mxCell>
                <mxCell id="yq6vvfXI3uli9TNve_ER-66" value="" style="endArrow=none;html=1;rounded=0;fontSize=14;endFill=0;" parent="1" source="vpkyE2I-De3JcrigjXew-12" target="yq6vvfXI3uli9TNve_ER-6" edge="1">
                    <mxGeometry width="50" height="50" relative="1" as="geometry">
                        <mxPoint x="669.9981725157434" y="799.9959563582254" as="sourcePoint"/>
                        <mxPoint x="1071.84" y="847.5654545454545" as="targetPoint"/>
                    </mxGeometry>
                </mxCell>
                <mxCell id="yq6vvfXI3uli9TNve_ER-73" value="" style="endArrow=none;html=1;rounded=0;fontSize=14;exitX=0.016;exitY=0.065;exitDx=0;exitDy=0;exitPerimeter=0;" parent="1" source="2" target="vpkyE2I-De3JcrigjXew-12" edge="1">
                    <mxGeometry width="50" height="50" relative="1" as="geometry">
                        <mxPoint x="1631.0377358490578" y="1360" as="sourcePoint"/>
                        <mxPoint x="1810" y="850" as="targetPoint"/>
                    </mxGeometry>
                </mxCell>
                <mxCell id="yq6vvfXI3uli9TNve_ER-74" value="Unternehmenszentrale" style="swimlane;fontSize=14;" parent="1" vertex="1">
                    <mxGeometry x="1880" y="1400" width="480" height="1100" as="geometry"/>
                </mxCell>
                <mxCell id="yq6vvfXI3uli9TNve_ER-77" value="" style="ellipse;fillColor=#000000;strokeColor=none;fontSize=14;" parent="yq6vvfXI3uli9TNve_ER-74" vertex="1">
                    <mxGeometry x="205" y="40" width="30" height="30" as="geometry"/>
                </mxCell>
                <mxCell id="yq6vvfXI3uli9TNve_ER-123" value="[else]" style="edgeStyle=orthogonalEdgeStyle;rounded=0;orthogonalLoop=1;jettySize=auto;html=1;fontSize=14;endArrow=classic;endFill=1;" parent="yq6vvfXI3uli9TNve_ER-74" source="yq6vvfXI3uli9TNve_ER-83" target="yq6vvfXI3uli9TNve_ER-120" edge="1">
                    <mxGeometry x="0.0244" y="-15" relative="1" as="geometry">
                        <mxPoint as="offset"/>
                    </mxGeometry>
                </mxCell>
                <mxCell id="yq6vvfXI3uli9TNve_ER-83" value="" style="rhombus;whiteSpace=wrap;html=1;fontSize=14;" parent="yq6vvfXI3uli9TNve_ER-74" vertex="1">
                    <mxGeometry x="202.5" y="240" width="35" height="30" as="geometry"/>
                </mxCell>
                <mxCell id="yq6vvfXI3uli9TNve_ER-105" style="edgeStyle=orthogonalEdgeStyle;rounded=0;orthogonalLoop=1;jettySize=auto;html=1;entryX=0.934;entryY=0.112;entryDx=0;entryDy=0;entryPerimeter=0;fontSize=14;endArrow=classic;endFill=1;" parent="yq6vvfXI3uli9TNve_ER-74" source="yq6vvfXI3uli9TNve_ER-95" target="yq6vvfXI3uli9TNve_ER-104" edge="1">
                    <mxGeometry relative="1" as="geometry"/>
                </mxCell>
                <mxCell id="yq6vvfXI3uli9TNve_ER-95" value="Empfangsanweisung" style="html=1;shape=mxgraph.infographic.ribbonSimple;notch1=0;notch2=20;align=center;verticalAlign=middle;fontSize=14;fontStyle=0;fillColor=#FFFFFF;" parent="yq6vvfXI3uli9TNve_ER-74" vertex="1">
                    <mxGeometry x="37.5" y="409" width="180" height="40" as="geometry"/>
                </mxCell>
                <mxCell id="yq6vvfXI3uli9TNve_ER-102" style="edgeStyle=orthogonalEdgeStyle;rounded=0;orthogonalLoop=1;jettySize=auto;html=1;fontSize=14;endArrow=classic;endFill=1;exitX=0.244;exitY=0.103;exitDx=0;exitDy=0;exitPerimeter=0;" parent="yq6vvfXI3uli9TNve_ER-74" source="yq6vvfXI3uli9TNve_ER-100" target="yq6vvfXI3uli9TNve_ER-95" edge="1">
                    <mxGeometry relative="1" as="geometry"/>
                </mxCell>
                <mxCell id="yq6vvfXI3uli9TNve_ER-103" style="edgeStyle=orthogonalEdgeStyle;rounded=0;orthogonalLoop=1;jettySize=auto;html=1;fontSize=14;endArrow=classic;endFill=1;exitX=-0.033;exitY=0.867;exitDx=0;exitDy=0;exitPerimeter=0;" parent="yq6vvfXI3uli9TNve_ER-74" source="yq6vvfXI3uli9TNve_ER-100" target="yq6vvfXI3uli9TNve_ER-94" edge="1">
                    <mxGeometry relative="1" as="geometry"/>
                </mxCell>
                <mxCell id="yq6vvfXI3uli9TNve_ER-100" value="" style="html=1;points=[];perimeter=orthogonalPerimeter;fillColor=#000000;strokeColor=none;fontSize=14;rotation=-90;" parent="yq6vvfXI3uli9TNve_ER-74" vertex="1">
                    <mxGeometry x="217.5" y="309" width="5" height="80" as="geometry"/>
                </mxCell>
                <mxCell id="yq6vvfXI3uli9TNve_ER-106" style="edgeStyle=orthogonalEdgeStyle;rounded=0;orthogonalLoop=1;jettySize=auto;html=1;entryX=0.94;entryY=0.888;entryDx=0;entryDy=0;entryPerimeter=0;fontSize=14;endArrow=classic;endFill=1;" parent="yq6vvfXI3uli9TNve_ER-74" source="yq6vvfXI3uli9TNve_ER-94" target="yq6vvfXI3uli9TNve_ER-104" edge="1">
                    <mxGeometry relative="1" as="geometry"/>
                </mxCell>
                <mxCell id="yq6vvfXI3uli9TNve_ER-94" value="Sendeanweisung" style="html=1;shape=mxgraph.infographic.ribbonSimple;notch1=0;notch2=20;align=center;verticalAlign=middle;fontSize=14;fontStyle=0;fillColor=#FFFFFF;" parent="yq6vvfXI3uli9TNve_ER-74" vertex="1">
                    <mxGeometry x="240" y="409" width="180" height="40" as="geometry"/>
                </mxCell>
                <mxCell id="yq6vvfXI3uli9TNve_ER-87" style="edgeStyle=orthogonalEdgeStyle;rounded=0;orthogonalLoop=1;jettySize=auto;html=1;fontSize=14;endArrow=classic;endFill=1;" parent="yq6vvfXI3uli9TNve_ER-74" source="yq6vvfXI3uli9TNve_ER-83" target="yq6vvfXI3uli9TNve_ER-100" edge="1">
                    <mxGeometry relative="1" as="geometry">
                        <mxPoint x="220" y="340" as="targetPoint"/>
                    </mxGeometry>
                </mxCell>
                <mxCell id="yq6vvfXI3uli9TNve_ER-88" value="[Eintrag vorhanden]" style="edgeLabel;html=1;align=center;verticalAlign=middle;resizable=0;points=[];fontSize=14;" parent="yq6vvfXI3uli9TNve_ER-87" vertex="1" connectable="0">
                    <mxGeometry x="-0.5781" y="1" relative="1" as="geometry">
                        <mxPoint x="74" y="15" as="offset"/>
                    </mxGeometry>
                </mxCell>
                <mxCell id="yq6vvfXI3uli9TNve_ER-104" value="" style="html=1;points=[];perimeter=orthogonalPerimeter;fillColor=#000000;strokeColor=none;fontSize=14;rotation=-90;" parent="yq6vvfXI3uli9TNve_ER-74" vertex="1">
                    <mxGeometry x="217.5" y="480" width="5" height="80" as="geometry"/>
                </mxCell>
                <mxCell id="yq6vvfXI3uli9TNve_ER-113" style="edgeStyle=orthogonalEdgeStyle;rounded=0;orthogonalLoop=1;jettySize=auto;html=1;fontSize=14;endArrow=classic;endFill=1;" parent="yq6vvfXI3uli9TNve_ER-74" source="yq6vvfXI3uli9TNve_ER-104" target="yq6vvfXI3uli9TNve_ER-83" edge="1">
                    <mxGeometry relative="1" as="geometry">
                        <Array as="points">
                            <mxPoint x="220" y="590"/>
                            <mxPoint x="440" y="590"/>
                            <mxPoint x="440" y="255"/>
                        </Array>
                    </mxGeometry>
                </mxCell>
                <mxCell id="yq6vvfXI3uli9TNve_ER-115" style="edgeStyle=orthogonalEdgeStyle;rounded=0;orthogonalLoop=1;jettySize=auto;html=1;fontSize=14;endArrow=classic;endFill=1;" parent="yq6vvfXI3uli9TNve_ER-74" source="yq6vvfXI3uli9TNve_ER-108" target="yq6vvfXI3uli9TNve_ER-114" edge="1">
                    <mxGeometry relative="1" as="geometry"/>
                </mxCell>
                <mxCell id="yq6vvfXI3uli9TNve_ER-108" value="Empfangsbestätigung" style="html=1;shape=mxgraph.infographic.ribbonSimple;notch1=20;notch2=0;align=center;verticalAlign=middle;fontSize=14;fontStyle=0;fillColor=#FFFFFF;flipH=0;spacingRight=0;spacingLeft=14;" parent="yq6vvfXI3uli9TNve_ER-74" vertex="1">
                    <mxGeometry x="125" y="718" width="190" height="40" as="geometry"/>
                </mxCell>
                <mxCell id="yq6vvfXI3uli9TNve_ER-117" value="" style="edgeStyle=orthogonalEdgeStyle;rounded=0;orthogonalLoop=1;jettySize=auto;html=1;fontSize=14;endArrow=classic;endFill=1;" parent="yq6vvfXI3uli9TNve_ER-74" source="yq6vvfXI3uli9TNve_ER-114" edge="1">
                    <mxGeometry relative="1" as="geometry">
                        <mxPoint x="220" y="928" as="targetPoint"/>
                    </mxGeometry>
                </mxCell>
                <mxCell id="yq6vvfXI3uli9TNve_ER-114" value="Überführung als erfolgreich vermerken" style="rounded=1;whiteSpace=wrap;html=1;fontSize=14;" parent="yq6vvfXI3uli9TNve_ER-74" vertex="1">
                    <mxGeometry x="160" y="808" width="120" height="60" as="geometry"/>
                </mxCell>
                <mxCell id="yq6vvfXI3uli9TNve_ER-125" value="[else]" style="edgeStyle=orthogonalEdgeStyle;rounded=0;orthogonalLoop=1;jettySize=auto;html=1;fontSize=14;endArrow=classic;endFill=1;" parent="yq6vvfXI3uli9TNve_ER-74" source="yq6vvfXI3uli9TNve_ER-118" target="yq6vvfXI3uli9TNve_ER-124" edge="1">
                    <mxGeometry x="0.0244" y="-15" relative="1" as="geometry">
                        <mxPoint as="offset"/>
                    </mxGeometry>
                </mxCell>
                <mxCell id="yq6vvfXI3uli9TNve_ER-118" value="" style="rhombus;whiteSpace=wrap;html=1;fontSize=14;" parent="yq6vvfXI3uli9TNve_ER-74" vertex="1">
                    <mxGeometry x="202.5" y="928" width="35" height="30" as="geometry"/>
                </mxCell>
                <mxCell id="yq6vvfXI3uli9TNve_ER-120" value="" style="shape=sumEllipse;perimeter=ellipsePerimeter;whiteSpace=wrap;html=1;backgroundOutline=1;fontSize=14;" parent="yq6vvfXI3uli9TNve_ER-74" vertex="1">
                    <mxGeometry x="70" y="240" width="30" height="30" as="geometry"/>
                </mxCell>
                <mxCell id="yq6vvfXI3uli9TNve_ER-124" value="" style="shape=sumEllipse;perimeter=ellipsePerimeter;whiteSpace=wrap;html=1;backgroundOutline=1;fontSize=14;" parent="yq6vvfXI3uli9TNve_ER-74" vertex="1">
                    <mxGeometry x="70" y="928" width="30" height="30" as="geometry"/>
                </mxCell>
                <mxCell id="yq6vvfXI3uli9TNve_ER-126" value="" style="ellipse;html=1;shape=endState;fillColor=#000000;strokeColor=#000000;fontSize=14;" parent="yq6vvfXI3uli9TNve_ER-74" vertex="1">
                    <mxGeometry x="330" y="978" width="30" height="30" as="geometry"/>
                </mxCell>
                <mxCell id="yq6vvfXI3uli9TNve_ER-119" value="&lt;div&gt;[alle Überführungen&lt;/div&gt;&lt;div&gt;abgeschlossen]&lt;/div&gt;" style="edgeStyle=orthogonalEdgeStyle;rounded=0;orthogonalLoop=1;jettySize=auto;html=1;fontSize=14;endArrow=classic;endFill=1;" parent="yq6vvfXI3uli9TNve_ER-74" source="yq6vvfXI3uli9TNve_ER-118" target="yq6vvfXI3uli9TNve_ER-126" edge="1">
                    <mxGeometry x="0.5088" y="29" relative="1" as="geometry">
                        <mxPoint x="320" y="978" as="targetPoint"/>
                        <mxPoint x="-14" y="-25" as="offset"/>
                    </mxGeometry>
                </mxCell>
                <mxCell id="yq6vvfXI3uli9TNve_ER-75" value="Mietstation" style="swimlane;fontSize=14;startSize=23;" parent="1" vertex="1">
                    <mxGeometry x="2360" y="1400" width="480" height="1100" as="geometry"/>
                </mxCell>
                <mxCell id="yq6vvfXI3uli9TNve_ER-93" value="Empfangsanweisung" style="html=1;shape=mxgraph.infographic.ribbonSimple;notch1=20;notch2=0;align=center;verticalAlign=middle;fontSize=14;fontStyle=0;fillColor=#FFFFFF;flipH=0;spacingRight=0;spacingLeft=14;" parent="yq6vvfXI3uli9TNve_ER-75" vertex="1">
                    <mxGeometry x="40" y="80" width="200" height="40" as="geometry"/>
                </mxCell>
                <mxCell id="yq6vvfXI3uli9TNve_ER-132" value="" style="edgeStyle=orthogonalEdgeStyle;rounded=0;orthogonalLoop=1;jettySize=auto;html=1;fontSize=14;endArrow=classic;endFill=1;" parent="yq6vvfXI3uli9TNve_ER-75" source="yq6vvfXI3uli9TNve_ER-129" target="yq6vvfXI3uli9TNve_ER-131" edge="1">
                    <mxGeometry relative="1" as="geometry"/>
                </mxCell>
                <mxCell id="yq6vvfXI3uli9TNve_ER-129" value="Stellplatz reservieren" style="rounded=1;whiteSpace=wrap;html=1;fontSize=14;" parent="yq6vvfXI3uli9TNve_ER-75" vertex="1">
                    <mxGeometry x="80" y="160" width="120" height="60" as="geometry"/>
                </mxCell>
                <mxCell id="yq6vvfXI3uli9TNve_ER-128" value="" style="edgeStyle=orthogonalEdgeStyle;rounded=0;orthogonalLoop=1;jettySize=auto;html=1;fontSize=14;endArrow=classic;endFill=1;" parent="yq6vvfXI3uli9TNve_ER-75" source="yq6vvfXI3uli9TNve_ER-93" target="yq6vvfXI3uli9TNve_ER-129" edge="1">
                    <mxGeometry relative="1" as="geometry">
                        <mxPoint x="140" y="190" as="targetPoint"/>
                    </mxGeometry>
                </mxCell>
                <mxCell id="yq6vvfXI3uli9TNve_ER-134" style="edgeStyle=orthogonalEdgeStyle;rounded=0;orthogonalLoop=1;jettySize=auto;html=1;fontSize=14;endArrow=classic;endFill=1;" parent="yq6vvfXI3uli9TNve_ER-75" source="yq6vvfXI3uli9TNve_ER-131" target="yq6vvfXI3uli9TNve_ER-133" edge="1">
                    <mxGeometry relative="1" as="geometry"/>
                </mxCell>
                <mxCell id="yq6vvfXI3uli9TNve_ER-131" value="Fahrzeug für Reservierungen freischalten" style="whiteSpace=wrap;html=1;fontSize=14;rounded=1;" parent="yq6vvfXI3uli9TNve_ER-75" vertex="1">
                    <mxGeometry x="260" y="160" width="120" height="60" as="geometry"/>
                </mxCell>
                <mxCell id="yq6vvfXI3uli9TNve_ER-133" value="" style="shape=sumEllipse;perimeter=ellipsePerimeter;whiteSpace=wrap;html=1;backgroundOutline=1;fontSize=14;" parent="yq6vvfXI3uli9TNve_ER-75" vertex="1">
                    <mxGeometry x="430" y="175" width="30" height="30" as="geometry"/>
                </mxCell>
                <mxCell id="yq6vvfXI3uli9TNve_ER-135" value="Sendeanweisung" style="html=1;shape=mxgraph.infographic.ribbonSimple;notch1=20;notch2=0;align=center;verticalAlign=middle;fontSize=14;fontStyle=0;fillColor=#FFFFFF;flipH=0;spacingRight=0;spacingLeft=14;" parent="yq6vvfXI3uli9TNve_ER-75" vertex="1">
                    <mxGeometry x="40" y="320" width="200" height="40" as="geometry"/>
                </mxCell>
                <mxCell id="yq6vvfXI3uli9TNve_ER-138" value="Fahrzeug für Buchungen und Reservierungen sperren" style="rounded=1;whiteSpace=wrap;html=1;fontSize=14;" parent="yq6vvfXI3uli9TNve_ER-75" vertex="1">
                    <mxGeometry x="30" y="400" width="220" height="60" as="geometry"/>
                </mxCell>
                <mxCell id="yq6vvfXI3uli9TNve_ER-137" value="" style="edgeStyle=orthogonalEdgeStyle;rounded=0;orthogonalLoop=1;jettySize=auto;html=1;fontSize=14;endArrow=classic;endFill=1;" parent="yq6vvfXI3uli9TNve_ER-75" source="yq6vvfXI3uli9TNve_ER-135" target="yq6vvfXI3uli9TNve_ER-138" edge="1">
                    <mxGeometry relative="1" as="geometry">
                        <mxPoint x="140" y="430" as="targetPoint"/>
                    </mxGeometry>
                </mxCell>
                <mxCell id="yq6vvfXI3uli9TNve_ER-140" value="" style="edgeStyle=orthogonalEdgeStyle;rounded=0;orthogonalLoop=1;jettySize=auto;html=1;fontSize=14;endArrow=classic;endFill=1;entryX=0.5;entryY=0;entryDx=0;entryDy=0;" parent="yq6vvfXI3uli9TNve_ER-75" source="yq6vvfXI3uli9TNve_ER-138" target="yq6vvfXI3uli9TNve_ER-146" edge="1">
                    <mxGeometry relative="1" as="geometry"/>
                </mxCell>
                <mxCell id="yq6vvfXI3uli9TNve_ER-146" value="" style="rhombus;whiteSpace=wrap;html=1;fontSize=14;" parent="yq6vvfXI3uli9TNve_ER-75" vertex="1">
                    <mxGeometry x="122.5" y="525" width="35" height="30" as="geometry"/>
                </mxCell>
                <mxCell id="yq6vvfXI3uli9TNve_ER-139" value="Mitarbeiter auswählen" style="whiteSpace=wrap;html=1;fontSize=14;rounded=1;" parent="yq6vvfXI3uli9TNve_ER-75" vertex="1">
                    <mxGeometry x="330" y="510" width="120" height="60" as="geometry"/>
                </mxCell>
                <mxCell id="yq6vvfXI3uli9TNve_ER-147" value="[Mitarbeiter vorhanden]" style="edgeStyle=orthogonalEdgeStyle;rounded=0;orthogonalLoop=1;jettySize=auto;html=1;fontSize=14;endArrow=classic;endFill=1;" parent="yq6vvfXI3uli9TNve_ER-75" source="yq6vvfXI3uli9TNve_ER-146" target="yq6vvfXI3uli9TNve_ER-139" edge="1">
                    <mxGeometry x="-0.0435" y="20" relative="1" as="geometry">
                        <mxPoint as="offset"/>
                    </mxGeometry>
                </mxCell>
                <mxCell id="yq6vvfXI3uli9TNve_ER-163" style="edgeStyle=orthogonalEdgeStyle;rounded=0;orthogonalLoop=1;jettySize=auto;html=1;fontSize=14;endArrow=classic;endFill=1;" parent="yq6vvfXI3uli9TNve_ER-75" source="yq6vvfXI3uli9TNve_ER-154" target="yq6vvfXI3uli9TNve_ER-165" edge="1">
                    <mxGeometry relative="1" as="geometry"/>
                </mxCell>
                <mxCell id="yq6vvfXI3uli9TNve_ER-154" value="Empfangsbestätigung" style="html=1;shape=mxgraph.infographic.ribbonSimple;notch1=0;notch2=20;align=center;verticalAlign=middle;fontSize=14;fontStyle=0;fillColor=#FFFFFF;" parent="yq6vvfXI3uli9TNve_ER-75" vertex="1">
                    <mxGeometry x="40" y="1020" width="180" height="40" as="geometry"/>
                </mxCell>
                <mxCell id="yq6vvfXI3uli9TNve_ER-156" style="edgeStyle=orthogonalEdgeStyle;rounded=0;orthogonalLoop=1;jettySize=auto;html=1;fontSize=14;endArrow=classic;endFill=1;" parent="yq6vvfXI3uli9TNve_ER-75" source="yq6vvfXI3uli9TNve_ER-155" target="yq6vvfXI3uli9TNve_ER-154" edge="1">
                    <mxGeometry relative="1" as="geometry"/>
                </mxCell>
                <mxCell id="yq6vvfXI3uli9TNve_ER-155" value="Fahrzeug annehmen" style="rounded=1;whiteSpace=wrap;html=1;fontSize=14;" parent="yq6vvfXI3uli9TNve_ER-75" vertex="1">
                    <mxGeometry x="300" y="1010" width="120" height="60" as="geometry"/>
                </mxCell>
                <mxCell id="yq6vvfXI3uli9TNve_ER-161" value="" style="edgeStyle=orthogonalEdgeStyle;rounded=0;orthogonalLoop=1;jettySize=auto;html=1;fontSize=14;endArrow=classic;endFill=1;" parent="yq6vvfXI3uli9TNve_ER-75" source="yq6vvfXI3uli9TNve_ER-159" target="yq6vvfXI3uli9TNve_ER-160" edge="1">
                    <mxGeometry relative="1" as="geometry"/>
                </mxCell>
                <mxCell id="yq6vvfXI3uli9TNve_ER-159" value="Kostenlose Überführungsfahrt erstellen" style="rounded=1;whiteSpace=wrap;html=1;fontSize=14;" parent="yq6vvfXI3uli9TNve_ER-75" vertex="1">
                    <mxGeometry x="260" y="730" width="170" height="60" as="geometry"/>
                </mxCell>
                <mxCell id="yq6vvfXI3uli9TNve_ER-158" value="[kein Mitarbeiter&lt;br&gt;vorhanden]" style="edgeStyle=orthogonalEdgeStyle;rounded=0;orthogonalLoop=1;jettySize=auto;html=1;fontSize=14;endArrow=classic;endFill=1;" parent="yq6vvfXI3uli9TNve_ER-75" source="yq6vvfXI3uli9TNve_ER-146" target="yq6vvfXI3uli9TNve_ER-159" edge="1">
                    <mxGeometry x="0.4611" y="30" relative="1" as="geometry">
                        <mxPoint x="50" y="790" as="targetPoint"/>
                        <Array as="points">
                            <mxPoint x="60" y="540"/>
                            <mxPoint x="60" y="760"/>
                        </Array>
                        <mxPoint as="offset"/>
                    </mxGeometry>
                </mxCell>
                <mxCell id="yq6vvfXI3uli9TNve_ER-164" style="edgeStyle=orthogonalEdgeStyle;rounded=0;orthogonalLoop=1;jettySize=auto;html=1;fontSize=14;endArrow=classic;endFill=1;" parent="yq6vvfXI3uli9TNve_ER-75" source="yq6vvfXI3uli9TNve_ER-160" target="yq6vvfXI3uli9TNve_ER-162" edge="1">
                    <mxGeometry relative="1" as="geometry"/>
                </mxCell>
                <mxCell id="yq6vvfXI3uli9TNve_ER-160" value="Eintrag aus Überführungsliste entfernen" style="rounded=1;whiteSpace=wrap;html=1;fontSize=14;" parent="yq6vvfXI3uli9TNve_ER-75" vertex="1">
                    <mxGeometry x="267.5" y="860" width="155" height="60" as="geometry"/>
                </mxCell>
                <mxCell id="yq6vvfXI3uli9TNve_ER-162" value="" style="shape=sumEllipse;perimeter=ellipsePerimeter;whiteSpace=wrap;html=1;backgroundOutline=1;fontSize=14;" parent="yq6vvfXI3uli9TNve_ER-75" vertex="1">
                    <mxGeometry x="157.5" y="875" width="30" height="30" as="geometry"/>
                </mxCell>
                <mxCell id="yq6vvfXI3uli9TNve_ER-165" value="" style="shape=sumEllipse;perimeter=ellipsePerimeter;whiteSpace=wrap;html=1;backgroundOutline=1;fontSize=14;" parent="yq6vvfXI3uli9TNve_ER-75" vertex="1">
                    <mxGeometry x="115" y="930" width="30" height="30" as="geometry"/>
                </mxCell>
                <mxCell id="yq6vvfXI3uli9TNve_ER-76" value="Mitarbeiter" style="swimlane;fontSize=14;" parent="1" vertex="1">
                    <mxGeometry x="2840" y="1400" width="280" height="1100" as="geometry"/>
                </mxCell>
                <mxCell id="yq6vvfXI3uli9TNve_ER-144" style="edgeStyle=orthogonalEdgeStyle;rounded=0;orthogonalLoop=1;jettySize=auto;html=1;fontSize=14;endArrow=classic;endFill=1;" parent="yq6vvfXI3uli9TNve_ER-76" source="yq6vvfXI3uli9TNve_ER-141" target="yq6vvfXI3uli9TNve_ER-143" edge="1">
                    <mxGeometry relative="1" as="geometry"/>
                </mxCell>
                <mxCell id="yq6vvfXI3uli9TNve_ER-141" value="Verfügbarkeit überprüfen" style="rounded=1;whiteSpace=wrap;html=1;fontSize=14;" parent="yq6vvfXI3uli9TNve_ER-76" vertex="1">
                    <mxGeometry x="70" y="510" width="120" height="60" as="geometry"/>
                </mxCell>
                <mxCell id="yq6vvfXI3uli9TNve_ER-153" value="[verfügbar]" style="edgeStyle=orthogonalEdgeStyle;rounded=0;orthogonalLoop=1;jettySize=auto;html=1;fontSize=14;endArrow=classic;endFill=1;" parent="yq6vvfXI3uli9TNve_ER-76" source="yq6vvfXI3uli9TNve_ER-143" target="yq6vvfXI3uli9TNve_ER-152" edge="1">
                    <mxGeometry x="-0.0769" y="50" relative="1" as="geometry">
                        <mxPoint as="offset"/>
                    </mxGeometry>
                </mxCell>
                <mxCell id="yq6vvfXI3uli9TNve_ER-143" value="" style="rhombus;whiteSpace=wrap;html=1;fontSize=14;" parent="yq6vvfXI3uli9TNve_ER-76" vertex="1">
                    <mxGeometry x="112.5" y="630" width="35" height="30" as="geometry"/>
                </mxCell>
                <mxCell id="yq6vvfXI3uli9TNve_ER-152" value="Fahrzeug überführen" style="rounded=1;whiteSpace=wrap;html=1;fontSize=14;" parent="yq6vvfXI3uli9TNve_ER-76" vertex="1">
                    <mxGeometry x="70" y="1010" width="120" height="60" as="geometry"/>
                </mxCell>
                <mxCell id="yq6vvfXI3uli9TNve_ER-84" style="edgeStyle=orthogonalEdgeStyle;rounded=0;orthogonalLoop=1;jettySize=auto;html=1;fontSize=14;endArrow=classic;endFill=1;" parent="1" source="yq6vvfXI3uli9TNve_ER-78" target="yq6vvfXI3uli9TNve_ER-83" edge="1">
                    <mxGeometry relative="1" as="geometry"/>
                </mxCell>
                <mxCell id="yq6vvfXI3uli9TNve_ER-78" value="Überführungsliste lesen" style="rounded=1;whiteSpace=wrap;html=1;fontSize=14;" parent="1" vertex="1">
                    <mxGeometry x="2025" y="1520" width="150" height="60" as="geometry"/>
                </mxCell>
                <mxCell id="yq6vvfXI3uli9TNve_ER-82" style="edgeStyle=orthogonalEdgeStyle;rounded=0;orthogonalLoop=1;jettySize=auto;html=1;fontSize=14;endArrow=classic;endFill=1;" parent="1" source="yq6vvfXI3uli9TNve_ER-79" target="yq6vvfXI3uli9TNve_ER-78" edge="1">
                    <mxGeometry relative="1" as="geometry"/>
                </mxCell>
                <mxCell id="yq6vvfXI3uli9TNve_ER-79" value="Überführungsliste" style="rounded=0;whiteSpace=wrap;html=1;fontSize=14;" parent="1" vertex="1">
                    <mxGeometry x="1690" y="1530" width="150" height="40" as="geometry"/>
                </mxCell>
                <mxCell id="yq6vvfXI3uli9TNve_ER-81" value="" style="edgeStyle=orthogonalEdgeStyle;rounded=0;orthogonalLoop=1;jettySize=auto;html=1;fontSize=14;endArrow=classic;endFill=1;" parent="1" source="yq6vvfXI3uli9TNve_ER-77" target="yq6vvfXI3uli9TNve_ER-78" edge="1">
                    <mxGeometry relative="1" as="geometry"/>
                </mxCell>
                <mxCell id="yq6vvfXI3uli9TNve_ER-149" style="edgeStyle=orthogonalEdgeStyle;rounded=0;orthogonalLoop=1;jettySize=auto;html=1;fontSize=14;endArrow=classic;endFill=1;" parent="1" source="yq6vvfXI3uli9TNve_ER-139" target="yq6vvfXI3uli9TNve_ER-141" edge="1">
                    <mxGeometry relative="1" as="geometry"/>
                </mxCell>
                <mxCell id="yq6vvfXI3uli9TNve_ER-151" value="[nicht verfügbar]" style="edgeStyle=orthogonalEdgeStyle;rounded=0;orthogonalLoop=1;jettySize=auto;html=1;fontSize=14;endArrow=classic;endFill=1;" parent="1" source="yq6vvfXI3uli9TNve_ER-143" target="yq6vvfXI3uli9TNve_ER-146" edge="1">
                    <mxGeometry x="0.0046" y="-15" relative="1" as="geometry">
                        <mxPoint as="offset"/>
                    </mxGeometry>
                </mxCell>
                <mxCell id="yq6vvfXI3uli9TNve_ER-157" style="edgeStyle=orthogonalEdgeStyle;rounded=0;orthogonalLoop=1;jettySize=auto;html=1;fontSize=14;endArrow=classic;endFill=1;" parent="1" source="yq6vvfXI3uli9TNve_ER-152" target="yq6vvfXI3uli9TNve_ER-155" edge="1">
                    <mxGeometry relative="1" as="geometry"/>
                </mxCell>
                <mxCell id="3" value="Fahrzeuge überführen" style="text;html=1;align=center;verticalAlign=middle;resizable=0;points=[];autosize=1;strokeColor=none;fillColor=none;" parent="1" vertex="1">
                    <mxGeometry x="1935" y="1360" width="130" height="20" as="geometry"/>
                </mxCell>
            </root>
        </mxGraphModel>
    </diagram>
</mxfile>